<svg version="1.1" xmlns="http://www.w3.org/2000/svg" xmlns:xlink="http://www.w3.org/1999/xlink" width="125.55612" height="125.50823" viewBox="0,0,125.55612,125.50823"><defs><linearGradient x1="257.47034" y1="136.9044" x2="257.47034" y2="221.64652" gradientUnits="userSpaceOnUse" id="color-1"><stop offset="0" stop-color="#638eff"/><stop offset="1" stop-color="#db63ff"/></linearGradient><linearGradient x1="225.07029" y1="151.08242" x2="268.81309" y2="168.39406" gradientUnits="userSpaceOnUse" id="color-2"><stop offset="0" stop-color="#000000" stop-opacity="0.66129"/><stop offset="1" stop-color="#000000" stop-opacity="0"/></linearGradient><linearGradient x1="214.82038" y1="136.30697" x2="214.82038" y2="221.81519" gradientUnits="userSpaceOnUse" id="color-3"><stop offset="0" stop-color="#6376ff"/><stop offset="1" stop-color="#63e8ff"/></linearGradient></defs><g transform="translate(-173.84395,-116.30697)"><g data-paper-data="{&quot;isPaintingLayer&quot;:true}" fill-rule="nonzero" stroke-linejoin="miter" stroke-miterlimit="10" stroke-dasharray="" stroke-dashoffset="0" style="mix-blend-mode: normal"><path d="M235.54063,136.9044l43.85944,84.74211" data-paper-data="{&quot;index&quot;:null}" fill="none" stroke="url(#color-1)" stroke-width="40" stroke-linecap="round"/><path d="M239.32606,183.72949l-1.48342,0.31725c0,0 -0.89359,-0.61935 -1.65342,-1.65201c-0.43712,-0.59407 -0.16296,-1.70723 -0.4649,-1.93983c-0.95237,-0.73362 -3.57621,0.43385 -3.57621,0.43385l22.40918,-45.14173c0,0 0.01708,-3.88442 1.12694,-3.35365c0.57609,0.2755 1.28115,3.32422 2.34654,5.11193c0.82285,1.38073 1.06644,2.87208 1.06644,2.87208z" fill="url(#color-2)" stroke="none" stroke-width="20" stroke-linecap="butt"/><path d="M235.79683,136.30697l-41.95288,85.50823" fill="none" stroke="url(#color-3)" stroke-width="40" stroke-linecap="round"/></g></g></svg>