<svg version="1.1" xmlns="http://www.w3.org/2000/svg" xmlns:xlink="http://www.w3.org/1999/xlink" width="150.00001" height="150.00001" viewBox="0,0,150.00001,150.00001"><defs><linearGradient x1="186.96699" y1="134.46699" x2="293.03301" y2="240.53301" gradientUnits="userSpaceOnUse" id="color-1"><stop offset="0" stop-color="#66fff4"/><stop offset="1" stop-color="#8366ff"/></linearGradient></defs><g transform="translate(-165,-112.5)"><g data-paper-data="{&quot;isPaintingLayer&quot;:true}" fill-rule="nonzero" stroke="none" stroke-width="0" stroke-linecap="butt" stroke-linejoin="miter" stroke-miterlimit="10" stroke-dasharray="" stroke-dashoffset="0" style="mix-blend-mode: normal"><path d="M186.96699,134.46699c29.28932,-29.28933 76.77669,-29.28933 106.06602,0c29.28933,29.28932 29.28933,76.77669 0,106.06602c-29.28933,29.28933 -76.77669,29.28933 -106.06602,0c-29.28932,-29.28932 -29.28932,-76.77669 0,-106.06602z" fill="url(#color-1)"/><g fill="#ffffff"><path d="M196.16367,194.67369c0,-22.91982 18.58018,-41.5 41.5,-41.5c12.99062,0 29.60961,9.33499 39.26031,23.04032c7.37637,10.47548 6.90636,25.53048 6.90636,35.45968c0,12.9319 -10.58163,-9.49628 -19.85368,-16.68301c-7.16125,-5.55065 -16.32507,-12.15032 -26.31299,-12.15032c-12.44794,0 -20.61583,14.58434 -28.22236,20.27983c-6.39902,4.79135 -13.27764,2.02538 -13.27764,-8.4465z" data-paper-data="{&quot;index&quot;:null}"/><path d="M207.89331,176.2745c0,0 4.14117,-23.288 5.26628,-29.6151c0.5306,-2.98385 3.72234,-2.93192 5.47377,-0.42287c2.7464,3.93442 10.57953,15.15591 10.57953,15.15591z" data-paper-data="{&quot;index&quot;:null}"/><path d="M239.87268,157.53716c0,0 -4.14117,23.288 -5.26628,29.6151c-0.5306,2.98385 -3.72235,2.93192 -5.47378,0.42287c-2.74641,-3.93442 -10.57952,-15.15591 -10.57952,-15.15591z" data-paper-data="{&quot;index&quot;:null}"/></g></g></g></svg>