<svg version="1.1" xmlns="http://www.w3.org/2000/svg" xmlns:xlink="http://www.w3.org/1999/xlink" width="433" height="298" viewBox="0,0,433,298"><defs><linearGradient x1="151.47033" y1="139.82503" x2="151.47033" y2="224.56715" gradientUnits="userSpaceOnUse" id="color-1"><stop offset="0" stop-color="#638eff"/><stop offset="1" stop-color="#db63ff"/></linearGradient><linearGradient x1="119.07029" y1="154.00305" x2="162.81309" y2="171.31469" gradientUnits="userSpaceOnUse" id="color-2"><stop offset="0" stop-color="#000000" stop-opacity="0.66129"/><stop offset="1" stop-color="#000000" stop-opacity="0"/></linearGradient><linearGradient x1="108.82038" y1="139.2276" x2="108.82038" y2="224.73582" gradientUnits="userSpaceOnUse" id="color-3"><stop offset="0" stop-color="#6376ff"/><stop offset="1" stop-color="#63e8ff"/></linearGradient></defs><g transform="translate(-5.28571,-2.94641)"><g data-paper-data="{&quot;isPaintingLayer&quot;:true}" fill-rule="nonzero" stroke-linejoin="miter" stroke-miterlimit="10" stroke-dasharray="" stroke-dashoffset="0" style="mix-blend-mode: normal"><path d="M5.28571,300.94641v-257h433v257z" fill="none" stroke="none" stroke-width="0" stroke-linecap="butt"/><text transform="translate(245.5724,181.1762) scale(1.0147,1.0147)" font-size="40" xml:space="preserve" fill="#ffffff" fill-rule="nonzero" stroke="#ffffff" stroke-width="2" stroke-linecap="butt" stroke-linejoin="miter" stroke-miterlimit="10" stroke-dasharray="" stroke-dashoffset="0" font-family="Sans Serif" font-weight="normal" text-anchor="start" style="mix-blend-mode: normal"><tspan x="0" dy="0">Aqua</tspan></text><text transform="translate(215.26208,210.53633) scale(0.40139,0.40139)" font-size="40" xml:space="preserve" fill="#ffffff" fill-rule="nonzero" stroke="#ffffff" stroke-width="1" stroke-linecap="butt" stroke-linejoin="miter" stroke-miterlimit="10" stroke-dasharray="" stroke-dashoffset="0" font-family="Sans Serif" font-weight="normal" text-anchor="start" style="mix-blend-mode: normal"><tspan x="0" dy="0">Fast, short, and easy.</tspan></text><path d="M129.54063,139.82503l43.85944,84.74211" data-paper-data="{&quot;index&quot;:null}" fill="none" stroke="url(#color-1)" stroke-width="40" stroke-linecap="round"/><path d="M133.32606,186.65012l-1.48342,0.31725c0,0 -0.89359,-0.61936 -1.65342,-1.65202c-0.43712,-0.59407 -0.16296,-1.70723 -0.4649,-1.93982c-0.95237,-0.73362 -3.57621,0.43385 -3.57621,0.43385l22.40918,-45.14173c0,0 0.01708,-3.88442 1.12694,-3.35365c0.57609,0.2755 1.28116,3.32421 2.34654,5.11192c0.82285,1.38073 1.06643,2.87208 1.06643,2.87208z" fill="url(#color-2)" stroke="none" stroke-width="20" stroke-linecap="butt"/><path d="M129.79683,139.2276l-41.95288,85.50823" fill="none" stroke="url(#color-3)" stroke-width="40" stroke-linecap="round"/><path d="M354.28571,4.94641v-2h1v2z" fill="none" stroke="none" stroke-width="0" stroke-linecap="butt"/></g></g></svg>